<svg xmlns="http://www.w3.org/2000/svg" width="1200" height="630" viewBox="0 0 1200 630">
  <rect width="1200" height="630" fill="#efe9da"/>
  <g stroke="#1b243812" stroke-width="1">
    <g>
      <line x1="0" y1="105" x2="1200" y2="105"/><line x1="0" y1="210" x2="1200" y2="210"/>
      <line x1="0" y1="315" x2="1200" y2="315"/><line x1="0" y1="420" x2="1200" y2="420"/>
      <line x1="0" y1="525" x2="1200" y2="525"/>
      <line x1="150" y1="0" x2="150" y2="630"/><line x1="300" y1="0" x2="300" y2="630"/>
      <line x1="450" y1="0" x2="450" y2="630"/><line x1="600" y1="0" x2="600" y2="630"/>
      <line x1="750" y1="0" x2="750" y2="630"/><line x1="900" y1="0" x2="900" y2="630"/>
      <line x1="1050" y1="0" x2="1050" y2="630"/>
    </g>
  </g>
  <g transform="translate(96, 120)">
    <g transform="translate(0, 0)">
      <circle cx="22" cy="22" r="20" fill="none" stroke="#1b2438" stroke-width="4"/>
      <line x1="22" y1="22" x2="22" y2="7" stroke="#d8472b" stroke-width="4" stroke-linecap="round"/>
      <line x1="22" y1="22" x2="34" y2="28" stroke="#d8472b" stroke-width="4" stroke-linecap="round"/>
      <text x="60" y="33" font-family="'JetBrains Mono', monospace" font-size="26" letter-spacing="6" fill="#8a8f9c">NOTEBOOK</text>
    </g>
    <text x="0" y="180" font-family="Georgia, 'Times New Roman', serif" font-size="78" font-weight="600" fill="#1b2438">Building things, and</text>
    <text x="0" y="270" font-family="Georgia, 'Times New Roman', serif" font-size="78" font-weight="600" fill="#1b2438">writing about how they</text>
    <text x="0" y="360" font-family="Georgia, 'Times New Roman', serif" font-size="78" font-style="italic" font-weight="600" fill="#d8472b">actually work.</text>
    <text x="0" y="430" font-family="Georgia, serif" font-size="30" fill="#465066">Field notes on data platforms, voice agents, and systems engineering.</text>
  </g>
  <rect x="0" y="0" width="1200" height="10" fill="#d8472b"/>
</svg>
